PathFileType	4	(X/Y/Z)	/Users/itak/Documents/Research/Walk-IL/dataset/trc/00191_00008.trc
DataRate	CameraRate	NumFrames	NumMarkers	Units	OrigDataRate	OrigDataStartFrame	OrigNumFrames
100.000000	100.000000	4	53	mm	100.000000	0	795
Frame#	Time	RPSI			LPSI			L3			STRN			T10			C7			CLAV			RBAK			LBAK			LSHO			LUPA			LAEL			LAOL			LWTS			LWPS			LFRA			LIFD			LHPS			LHTS			RSHO			RUPA			RAEL			RAOL			RWTS			RWPS			RFRA			RIFD			RHTS			RHPS			RBHD			LFHD			RFHD			LBHD			LHIP			RHIP			RASI			LASI			LKNE			LTHI			LANK			LTIP			LTOE			LMT1			LMT5			LHEE			RKNE			RTHI			RANK			RTIP			RTOE			RMT1			RMT5			RHEE			
		X1	Y1	Z1	X2	Y2	Z2	X3	Y3	Z3	X4	Y4	Z4	X5	Y5	Z5	X6	Y6	Z6	X7	Y7	Z7	X8	Y8	Z8	X9	Y9	Z9	X10	Y10	Z10	X11	Y11	Z11	X12	Y12	Z12	X13	Y13	Z13	X14	Y14	Z14	X15	Y15	Z15	X16	Y16	Z16	X17	Y17	Z17	X18	Y18	Z18	X19	Y19	Z19	X20	Y20	Z20	X21	Y21	Z21	X22	Y22	Z22	X23	Y23	Z23	X24	Y24	Z24	X25	Y25	Z25	X26	Y26	Z26	X27	Y27	Z27	X28	Y28	Z28	X29	Y29	Z29	X30	Y30	Z30	X31	Y31	Z31	X32	Y32	Z32	X33	Y33	Z33	X34	Y34	Z34	X35	Y35	Z35	X36	Y36	Z36	X37	Y37	Z37	X38	Y38	Z38	X39	Y39	Z39	X40	Y40	Z40	X41	Y41	Z41	X42	Y42	Z42	X43	Y43	Z43	X44	Y44	Z44	X45	Y45	Z45	X46	Y46	Z46	X47	Y47	Z47	X48	Y48	Z48	X49	Y49	Z49	X50	Y50	Z50	X51	Y51	Z51	X52	Y52	Z52	X53	Y53	Z53	

1	0	320.2947998046875	1057.157958984375	909.6204833984375	305.1966857910156	1055.878051757812	1032.290649414062	311.3916320800781	1094.058471679688	969.1488647460938	60.87068939208984	1300.788452148438	953.034423828125	347.4068603515625	1254.84375	981.4074096679688	279.5194702148438	1523.79345703125	990.7435913085938	85.92551422119141	1414.23486328125	966.8919067382812	360.2889099121094	1350.365966796875	887.950439453125	279.9992980957031	1497.428833007812	1089.876342773438	198.7333984375	1482.513793945312	1161.852661132812	229.4570159912109	1347.645385742188	1232.9990234375	210.6247863769531	1131.067138671875	1244.929077148438	257.6590576171875	1114.954833984375	1172.4462890625	93.20471954345703	902.7926635742188	1214.554443359375	174.7573852539062	879.68505859375	1253.591552734375	194.2739868164062	1021.532470703125	1257.830444335938	87.54674530029297	745.7628173828125	1171.969604492188	152.2239379882812	810.6912841796875	1248.787109375	81.06288909912109	823.0327758789062	1233.5234375	236.6467132568359	1503.122436523438	804.4091796875	265.2855834960938	1437.746337890625	737.0391235351562	286.11962890625	1149.224243164062	682.0889282226562	280.2549133300781	1140.29345703125	779.565673828125	140.2107696533203	926.0313110351562	679.3904418945312	219.9923400878906	907.0073852539062	642.8275146484375	262.3938293457031	1077.686889648438	659.8517456054688	118.0626525878906	737.3934936523438	698.4320068359375	113.5515975952148	832.256103515625	666.5081176757812	189.9321594238281	824.4743041992188	641.3372802734375	151.3223724365234	1694.225952148438	906.5330810546875	-22.01492881774902	1658.197998046875	1032.491821289062	-19.46940803527832	1656.961547851562	902.9363403320312	149.8081665039062	1705.732421875	1042.936767578125	190.3757171630859	995.1802368164062	1136.927856445312	178.0118560791016	1019.265808105469	767.1907348632812	92.42998504638672	1047.001953125	814.06103515625	71.02611541748047	1032.507568359375	1072.314575195312	185.7641906738281	500.8550415039062	1103.650634765625	174.9575805664062	644.1837158203125	1130.17822265625	281.8690185546875	44.57624053955078	1118.047607421875	230.0814208984375	280.0189819335938	1123.588012695312	59.53366851806641	43.75640106201172	1099.694213867188	108.8514099121094	44.61069107055664	1050.143920898438	174.8542175292969	36.78260803222656	1161.583129882812	329.4159851074219	41.01790618896484	1045.928344726562	179.4264678955078	518.604736328125	783.4335327148438	130.1159515380859	787.7482299804688	750.7680053710938	284.4118957519531	41.75799942016602	780.2787475585938	173.7152404785156	399.6864624023438	800.0763549804688	60.47946548461914	43.04008483886719	811.182861328125	116.4366836547852	42.13949966430664	857.135986328125	171.7714538574219	38.98244094848633	742.5921020507812	335.2577514648438	38.35257339477539	847.1443481445312	
2	0.01	320.1712951660156	1057.1123046875	909.6414794921875	305.1252136230469	1055.845825195312	1032.308349609375	311.29833984375	1094.017333984375	969.1702880859375	60.77518463134766	1300.79638671875	953.1119384765625	347.3621520996094	1254.806396484375	981.4238891601562	279.4993896484375	1523.7724609375	990.7651977539062	85.88238525390625	1414.228271484375	966.9337768554688	360.2238159179688	1350.331420898438	887.95068359375	279.9779357910156	1497.40380859375	1089.904907226562	198.7002105712891	1482.494140625	1161.889404296875	229.3733673095703	1347.615966796875	1233.03857421875	210.5197601318359	1131.049072265625	1244.947021484375	257.5360107421875	1114.920043945312	1172.4931640625	93.07192230224609	902.8010864257812	1214.536743164062	174.5540313720703	879.682861328125	1253.588989257812	194.0884552001953	1021.510498046875	1257.855834960938	87.33706665039062	745.905517578125	1171.933349609375	152.0182189941406	810.6815795898438	1248.764404296875	80.85588836669922	823.0520629882812	1233.459594726562	236.5763397216797	1503.098876953125	804.4474487304688	265.2113647460938	1437.722412109375	737.063720703125	285.9695129394531	1149.18994140625	682.0968627929688	280.1372985839844	1140.26318359375	779.5626831054688	139.9061431884766	926.0945434570312	679.5093383789062	219.6636352539062	906.9923095703125	642.9052734375	262.2029724121094	1077.658447265625	659.8802490234375	117.6943359375	737.5101928710938	698.6021118164062	113.1038818359375	832.3306274414062	666.6082153320312	189.5573577880859	824.4828491210938	641.4296264648438	151.3150024414062	1694.212036132812	906.5838012695312	-22.02655792236328	1658.214111328125	1032.54345703125	-19.49272155761719	1656.97705078125	902.9934692382812	149.8111419677734	1705.712890625	1042.987182617188	190.2594146728516	995.1669311523438	1136.975341796875	177.8141174316406	1019.239501953125	767.2405395507812	92.20672607421875	1047.00927734375	814.0827026367188	70.89279937744141	1032.501953125	1072.402465820312	185.6328582763672	500.8641357421875	1103.671020507812	174.8868103027344	644.1974487304688	1130.184814453125	281.8645935058594	44.58562850952148	1118.039794921875	230.0085296630859	280.0128784179688	1123.578247070312	59.52096939086914	43.74483489990234	1099.692626953125	108.8433380126953	44.60926055908203	1050.144409179688	174.8507995605469	36.77893447875977	1161.58154296875	329.4140625	41.02222442626953	1045.923095703125	179.3363342285156	518.6099853515625	783.4588623046875	130.2516021728516	787.7977905273438	750.7784423828125	284.405517578125	41.77216339111328	780.2860107421875	173.6233978271484	399.6760559082031	800.11474609375	60.46504211425781	43.03151321411133	811.181396484375	116.4303817749023	42.13566207885742	857.139404296875	171.7750854492188	38.98942947387695	742.6033935546875	335.2511596679688	38.36393737792969	847.162841796875	
3	0.02	320.0110168457031	1057.056884765625	909.6685180664062	305.0283203125	1055.806884765625	1032.330444335938	311.1834411621094	1093.965209960938	969.1975708007812	60.66026306152344	1300.80517578125	953.199462890625	347.2996215820312	1254.757568359375	981.4452514648438	279.4794616699219	1523.74560546875	990.7932739257812	85.82208251953125	1414.224975585938	966.9869995117188	360.140869140625	1350.285278320312	887.9524536132812	279.9518432617188	1497.36962890625	1089.939697265625	198.6613006591797	1482.469848632812	1161.93408203125	229.265625	1347.579956054688	1233.089477539062	210.3828430175781	1131.026000976562	1244.970703125	257.37255859375	1114.875366210938	1172.551635742188	92.87871551513672	902.816650390625	1214.513916015625	174.2849578857422	879.6799926757812	1253.584594726562	193.8506774902344	1021.484985351562	1257.88671875	87.05825042724609	746.08349609375	1171.887817382812	151.733642578125	810.6707153320312	1248.741333007812	80.58500671386719	823.0869140625	1233.385620117188	236.4921417236328	1503.068359375	804.494140625	265.1168212890625	1437.692016601562	737.0933837890625	285.7791748046875	1149.144653320312	682.1055908203125	279.9800415039062	1140.226440429688	779.560546875	139.5093383789062	926.1792602539062	679.6597290039062	219.24365234375	906.97412109375	643.0034790039062	261.9611511230469	1077.621459960938	659.9180297851562	117.2121810913086	737.6506958007812	698.81396484375	112.5548400878906	832.4227905273438	666.7474975585938	189.0776062011719	824.4918212890625	641.5489501953125	151.3063354492188	1694.1953125	906.6456298828125	-22.03914451599121	1658.234008789062	1032.606079101562	-19.52112579345703	1656.993774414062	903.062744140625	149.8152313232422	1705.68994140625	1043.046752929688	190.1125030517578	995.1507568359375	1137.034423828125	177.5650024414062	1019.207763671875	767.30224609375	91.92996978759766	1047.020141601562	814.1224365234375	70.71669769287109	1032.498779296875	1072.51025390625	185.4761047363281	500.873046875	1103.69384765625	174.7951507568359	644.2111206054688	1130.194091796875	281.8568725585938	44.59745407104492	1118.029418945312	229.9212646484375	280.0045471191406	1123.567626953125	59.5074577331543	43.73221588134766	1099.68994140625	108.834342956543	44.60807418823242	1050.145263671875	174.8458709716797	36.77633285522461	1161.578979492188	329.4122924804688	41.02927780151367	1045.915649414062	179.2171173095703	518.6116943359375	783.4927978515625	130.4506988525391	787.86328125	750.7864379882812	284.3966064453125	41.78738784790039	780.2945556640625	173.5089111328125	399.6597900390625	800.16796875	60.4500846862793	43.02041625976562	811.1806640625	116.4235382080078	42.13113784790039	857.142578125	171.7790985107422	38.99698257446289	742.615478515625	335.2412109375	38.37557220458984	847.1832885742188	
4	0.03	319.8185729980469	1056.995239257812	909.7013549804688	304.9050598144531	1055.763916015625	1032.357421875	311.0534973144531	1093.904174804688	969.2296142578125	60.5330810546875	1300.814208984375	953.2889404296875	347.2193603515625	1254.697875976562	981.4701538085938	279.4621276855469	1523.71337890625	990.826904296875	85.74468994140625	1414.2275390625	967.0498657226562	360.0426635742188	1350.227661132812	887.9561767578125	279.9228820800781	1497.326049804688	1089.978393554688	198.6196441650391	1482.442260742188	1161.984375	229.1380615234375	1347.539428710938	1233.149780273438	210.21630859375	1130.99853515625	1245	257.1722106933594	1114.822265625	1172.619262695312	92.61811065673828	902.8413696289062	1214.486450195312	173.9544830322266	879.6766357421875	1253.578369140625	193.5677337646484	1021.457824707031	1257.921752929688	86.71322631835938	746.287109375	1171.83447265625	151.3689727783203	810.660400390625	1248.722290039062	80.25403594970703	823.140625	1233.309692382812	236.4001159667969	1503.031494140625	804.5467529296875	265.0060729980469	1437.655517578125	737.12646484375	285.5559997558594	1149.089477539062	682.114013671875	279.7856140136719	1140.185302734375	779.5596923828125	139.0309906005859	926.2823486328125	679.8341064453125	218.7448120117188	906.9537353515625	643.1177368164062	261.6775817871094	1077.576293945312	659.9639282226562	116.621452331543	737.8069458007812	699.0574340820312	111.932258605957	832.5316162109375	666.9232177734375	188.5050811767578	824.4999389648438	641.6918334960938	151.2972564697266	1694.1767578125	906.71484375	-22.05072784423828	1658.256469726562	1032.676025390625	-19.55260467529297	1657.009765625	903.14013671875	149.8211212158203	1705.665283203125	1043.111206054688	189.9398193359375	995.1329345703125	1137.102416992188	177.2744903564453	1019.172424316406	767.372314453125	91.61490631103516	1047.033813476562	814.181884765625	70.50128173828125	1032.500610351562	1072.6318359375	185.3039245605469	500.8796691894531	1103.716186523438	174.6812591552734	644.220947265625	1130.208129882812	281.8457946777344	44.61111068725586	1118.015991210938	229.8251647949219	279.9947814941406	1123.5576171875	59.49462127685547	43.72061157226562	1099.687255859375	108.8254013061523	44.60731506347656	1050.146362304688	174.8397369384766	36.77550506591797	1161.575317382812	329.4107055664062	41.03937149047852	1045.906616210938	179.0711669921875	518.6074829101562	783.5345458984375	130.7032470703125	787.93994140625	750.791748046875	284.3864440917969	41.80185317993164	780.3037719726562	173.3778228759766	399.6369323730469	800.2351684570312	60.43597412109375	43.00778198242188	811.1810913085938	116.4167556762695	42.12620162963867	857.1452026367188	171.7829132080078	39.00398635864258	742.6266479492188	335.2283935546875	38.38581085205078	847.2036743164062	
